<svg xmlns="http://www.w3.org/2000/svg" width="21.237" height="21.237" viewBox="0 0 21.237 21.237">
  <path id="Path_121" data-name="Path 121" d="M31.362,10.636H14.407a2.132,2.132,0,0,0-2.141,2.123V29.75a2.132,2.132,0,0,0,2.141,2.123h7V24.7H19.017V22.232h2.392V19.549a2.78,2.78,0,0,1,2.665-2.688h2.678v2.248H25.517a1.416,1.416,0,0,0-1.42,1.4v1.72h2.413V24.7H24.1v7.171h7.265A2.132,2.132,0,0,0,33.5,29.75V12.759A2.132,2.132,0,0,0,31.362,10.636Z" transform="translate(-12.266 -10.636)" fill="#0e353c"/>
</svg>
