<svg xmlns="http://www.w3.org/2000/svg" width="130" height="96.244" viewBox="0 0 130 96.244">
  <g id="Group_21" data-name="Group 21" transform="translate(-746.49 -380.08)">
    <path id="Path_16" data-name="Path 16" d="M896.475,469.363l-35.15-18.4v21.341l35.15,11.452Z" transform="translate(-79.684 -49.187)" fill="#2eaf7d"/>
    <path id="Path_17" data-name="Path 17" d="M746.49,532.107l35.15-11.452v21.63l-35.15.562Z" transform="translate(0 -97.546)" fill="#02353c"/>
    <path id="Path_18" data-name="Path 18" d="M746.49,405.789l35.15-25.709v21.706l-35.15,18.4Z" fill="#02353c"/>
    <g id="Group_20" data-name="Group 20" transform="translate(801.959 471.935)">
      <g id="Group_19" data-name="Group 19">
        <path id="Path_19" data-name="Path 19" d="M931.56,681.75h-.369a1.45,1.45,0,0,0-.467-.678,1.25,1.25,0,0,0-.805-.271,1.293,1.293,0,0,0-1.009.437,1.787,1.787,0,0,0,0,2.251,1.292,1.292,0,0,0,1.009.436,1.25,1.25,0,0,0,.805-.271,1.45,1.45,0,0,0,.467-.678h.776a2.156,2.156,0,0,1-.7,1.129,1.979,1.979,0,0,1-1.347.452,2.111,2.111,0,0,1-1.6-.633,2.307,2.307,0,0,1,0-3.125,2.112,2.112,0,0,1,1.6-.632,1.978,1.978,0,0,1,1.347.452,2.154,2.154,0,0,1,.7,1.129Z" transform="translate(-927.705 -680.169)" fill="#02353c"/>
        <path id="Path_20" data-name="Path 20" d="M945.494,683.926a2.306,2.306,0,0,1,0-3.125,2.111,2.111,0,0,1,1.6-.632,2.137,2.137,0,0,1,1.611.632,2.307,2.307,0,0,1,0,3.125,2.136,2.136,0,0,1-1.611.633A2.111,2.111,0,0,1,945.494,683.926Zm2.62-2.688a1.317,1.317,0,0,0-1.017-.437,1.294,1.294,0,0,0-1.009.437,1.788,1.788,0,0,0,0,2.251,1.294,1.294,0,0,0,1.009.436,1.317,1.317,0,0,0,1.017-.436,1.814,1.814,0,0,0,0-2.251Z" transform="translate(-939.626 -680.169)" fill="#02353c"/>
        <path id="Path_21" data-name="Path 21" d="M963.661,682.879v-2.342h.881q.889,1.144,2.507,3.238v-3.238h.776V684.7h-.889l-2.507-3.239V684.7h-.768Z" transform="translate(-952.655 -680.424)" fill="#02353c"/>
        <path id="Path_22" data-name="Path 22" d="M982.711,681.016a.543.543,0,0,0-.256.459.354.354,0,0,0,.113.271.782.782,0,0,0,.3.166,4.565,4.565,0,0,0,.858.188,2.787,2.787,0,0,1,.9.256,1.169,1.169,0,0,1,.429.347.934.934,0,0,1,.166.58,1.155,1.155,0,0,1-.083.451,1,1,0,0,1-.234.339,1.573,1.573,0,0,1-.692.391,3.226,3.226,0,0,1-.836.113,2.86,2.86,0,0,1-.835-.128,1.547,1.547,0,0,1-.7-.414,1.144,1.144,0,0,1-.316-.828h.805a.623.623,0,0,0,.309.557,1.326,1.326,0,0,0,.738.2,1.665,1.665,0,0,0,.738-.151.509.509,0,0,0,.3-.489.363.363,0,0,0-.113-.279.855.855,0,0,0-.308-.173,4.028,4.028,0,0,0-.851-.2,2.909,2.909,0,0,1-.9-.264,1.139,1.139,0,0,1-.429-.353.908.908,0,0,1-.173-.58.962.962,0,0,1,.091-.422.986.986,0,0,1,.226-.324,1.517,1.517,0,0,1,.663-.392,2.633,2.633,0,0,1,.76-.12,2.319,2.319,0,0,1,.407.038,2.942,2.942,0,0,1,.414.105,1.732,1.732,0,0,1,.64.429,1.061,1.061,0,0,1,.271.76h-.806a.635.635,0,0,0-.263-.512,1.053,1.053,0,0,0-.662-.2A1.161,1.161,0,0,0,982.711,681.016Z" transform="translate(-965.054 -680.203)" fill="#02353c"/>
        <path id="Path_23" data-name="Path 23" d="M997.855,683.232v-2.078H996.2v-.618h4.088v.618h-1.656V684.7h-.776Z" transform="translate(-975.234 -680.424)" fill="#02353c"/>
        <path id="Path_24" data-name="Path 24" d="M1017.3,684.7h-.926q-.312-.427-1.187-1.619h-1.012V684.7h-.768v-4.164h2a2,2,0,0,1,1.265.347,1.214,1.214,0,0,1,0,1.852,1.541,1.541,0,0,1-.646.284Q1016.426,683.549,1017.3,684.7Zm-1.234-3.4a1.208,1.208,0,0,0-.655-.15h-1.235v1.31h1.235a1.208,1.208,0,0,0,.655-.15.662.662,0,0,0,0-1.009Z" transform="translate(-987.172 -680.424)" fill="#02353c"/>
        <path id="Path_25" data-name="Path 25" d="M1030.452,684.226a2.253,2.253,0,0,1-.557-1.649v-2.04h.768v2.04a1.749,1.749,0,0,0,.346,1.2,1.143,1.143,0,0,0,.889.384,1.157,1.157,0,0,0,.888-.384,1.749,1.749,0,0,0,.346-1.2v-2.04h.768v2.04a2.253,2.253,0,0,1-.557,1.649,2.112,2.112,0,0,1-2.891,0Z" transform="translate(-998.615 -680.424)" fill="#02353c"/>
        <path id="Path_26" data-name="Path 26" d="M1051,681.75h-.369a1.45,1.45,0,0,0-.467-.678,1.25,1.25,0,0,0-.806-.271,1.293,1.293,0,0,0-1.009.437,1.787,1.787,0,0,0,0,2.251,1.293,1.293,0,0,0,1.009.436,1.25,1.25,0,0,0,.806-.271,1.45,1.45,0,0,0,.467-.678h.776a2.156,2.156,0,0,1-.7,1.129,1.979,1.979,0,0,1-1.348.452,2.11,2.11,0,0,1-1.6-.633,2.305,2.305,0,0,1,0-3.125,2.111,2.111,0,0,1,1.6-.632,1.978,1.978,0,0,1,1.348.452,2.155,2.155,0,0,1,.7,1.129Z" transform="translate(-1010.586 -680.169)" fill="#02353c"/>
        <path id="Path_27" data-name="Path 27" d="M1065.048,683.232v-2.078h-1.657v-.618h4.088v.618h-1.656V684.7h-.775Z" transform="translate(-1021.859 -680.424)" fill="#02353c"/>
        <path id="Path_28" data-name="Path 28" d="M1080.717,682.879v-2.342h.768V684.7h-.768Z" transform="translate(-1033.881 -680.424)" fill="#02353c"/>
        <path id="Path_29" data-name="Path 29" d="M1088.25,683.926a2.307,2.307,0,0,1,0-3.125,2.111,2.111,0,0,1,1.6-.632,2.137,2.137,0,0,1,1.611.632,2.306,2.306,0,0,1,0,3.125,2.136,2.136,0,0,1-1.611.633A2.111,2.111,0,0,1,1088.25,683.926Zm2.62-2.688a1.316,1.316,0,0,0-1.016-.437,1.293,1.293,0,0,0-1.009.437,1.787,1.787,0,0,0,0,2.251,1.293,1.293,0,0,0,1.009.436,1.316,1.316,0,0,0,1.016-.436,1.814,1.814,0,0,0,0-2.251Z" transform="translate(-1038.685 -680.169)" fill="#02353c"/>
        <path id="Path_30" data-name="Path 30" d="M1106.417,682.879v-2.342h.881q.889,1.144,2.507,3.238v-3.238h.776V684.7h-.888q-.68-.878-2.507-3.239V684.7h-.768Z" transform="translate(-1051.715 -680.424)" fill="#02353c"/>
        <path id="Path_31" data-name="Path 31" d="M1131.724,682.879v-2.342h.768V684.7h-.768Z" transform="translate(-1069.276 -680.424)" fill="#02353c"/>
        <path id="Path_32" data-name="Path 32" d="M1139.409,682.879v-2.342h.881q.89,1.144,2.508,3.238v-3.238h.775V684.7h-.889q-.68-.878-2.507-3.239V684.7h-.768Z" transform="translate(-1074.608 -680.424)" fill="#02353c"/>
        <path id="Path_33" data-name="Path 33" d="M1161.132,681.75h-.369a1.451,1.451,0,0,0-.467-.678,1.251,1.251,0,0,0-.806-.271,1.293,1.293,0,0,0-1.009.437,1.787,1.787,0,0,0,0,2.251,1.293,1.293,0,0,0,1.009.436,1.251,1.251,0,0,0,.806-.271,1.451,1.451,0,0,0,.467-.678h.776a2.153,2.153,0,0,1-.7,1.129,1.979,1.979,0,0,1-1.347.452,2.11,2.11,0,0,1-1.6-.633,2.305,2.305,0,0,1,0-3.125,2.111,2.111,0,0,1,1.6-.632,1.978,1.978,0,0,1,1.347.452,2.152,2.152,0,0,1,.7,1.129Z" transform="translate(-1087.007 -680.169)" fill="#02353c"/>
      </g>
    </g>
    <path id="Path_34" data-name="Path 34" d="M999.479,580.142a8.509,8.509,0,0,1,8.4,7.241h4.762V575.45h-3.129l-1.231,3.382a13.181,13.181,0,1,0,4.323,11.042h-4.723a8.5,8.5,0,1,1-8.406-9.733Z" transform="translate(-166.4 -135.569)" fill="#02353c"/>
    <path id="Path_35" data-name="Path 35" d="M1105.094,575.45l-1.571,4.316a13.188,13.188,0,1,0,0,17.743l1.571,4.316h3.129V575.45Zm-2.823,13.188a8.5,8.5,0,1,1-8.5-8.5A8.506,8.506,0,0,1,1102.271,588.638Z" transform="translate(-231.832 -135.569)" fill="#02353c"/>
    <path id="Path_36" data-name="Path 36" d="M903.4,575.53a13.164,13.164,0,0,0-11.218,4.241l-1.571-4.32h-3.128v36.375h3.129l1.57-4.361v-9.958A13.186,13.186,0,1,0,903.4,575.53Zm-.594,21.561a8.5,8.5,0,1,1,7.583-7.583A8.506,8.506,0,0,1,902.806,597.091Z" transform="translate(-97.836 -135.569)" fill="#02353c"/>
  </g>
</svg>
